<mxfile host="app.diagrams.net" modified="2024-03-05T10:43:20.021Z" agent="Mozilla/5.0 (Windows NT 10.0; Win64; x64) AppleWebKit/537.36 (KHTML, like Gecko) Chrome/121.0.0.0 Safari/537.36 OPR/107.0.0.0" etag="rSAMh8jER87h71J2fWbG" version="24.0.1" type="device">
  <diagram name="PÃ¡gina-1" id="D7rHYXCT1kcVb85K1ox6">
    <mxGraphModel dx="1393" dy="766" grid="0" gridSize="10" guides="1" tooltips="1" connect="1" arrows="1" fold="1" page="1" pageScale="1" pageWidth="827" pageHeight="1169" math="0" shadow="0">
      <root>
        <mxCell id="0" />
        <mxCell id="1" parent="0" />
        <mxCell id="_PwQraxUoY3Q8N2v7YTp-2" value="" style="ellipse;whiteSpace=wrap;html=1;" vertex="1" parent="1">
          <mxGeometry x="80" y="260" width="160" height="120" as="geometry" />
        </mxCell>
        <mxCell id="_PwQraxUoY3Q8N2v7YTp-3" value="LEFT_TURN" style="ellipse;whiteSpace=wrap;html=1;" vertex="1" parent="1">
          <mxGeometry x="100" y="280" width="120" height="80" as="geometry" />
        </mxCell>
        <mxCell id="_PwQraxUoY3Q8N2v7YTp-4" value="RIGHT_TURN" style="ellipse;whiteSpace=wrap;html=1;" vertex="1" parent="1">
          <mxGeometry x="610" y="280" width="120" height="80" as="geometry" />
        </mxCell>
        <mxCell id="_PwQraxUoY3Q8N2v7YTp-5" value="FOLLOW" style="ellipse;whiteSpace=wrap;html=1;" vertex="1" parent="1">
          <mxGeometry x="340" y="40" width="120" height="80" as="geometry" />
        </mxCell>
        <mxCell id="_PwQraxUoY3Q8N2v7YTp-8" value="" style="html=1;exitX=0;exitY=1;labelBackgroundColor=none;startFill=0;endArrow=block;endFill=1;strokeColor=#000000;strokeWidth=1;fontFamily=Verdana;fontSize=12;curved=1;exitDx=0;exitDy=0;" edge="1" parent="1" source="_PwQraxUoY3Q8N2v7YTp-5" target="_PwQraxUoY3Q8N2v7YTp-2">
          <mxGeometry x="0.0622" relative="1" as="geometry">
            <mxPoint x="251" y="310" as="targetPoint" />
            <Array as="points">
              <mxPoint x="380" y="190" />
            </Array>
            <mxPoint as="offset" />
            <mxPoint x="610" y="110" as="sourcePoint" />
          </mxGeometry>
        </mxCell>
        <mxCell id="_PwQraxUoY3Q8N2v7YTp-9" value="" style="html=1;exitX=1;exitY=1;labelBackgroundColor=none;startFill=0;endArrow=block;endFill=1;strokeColor=#000000;strokeWidth=1;fontFamily=Verdana;fontSize=12;curved=1;exitDx=0;exitDy=0;entryX=0;entryY=0.5;entryDx=0;entryDy=0;" edge="1" parent="1" source="_PwQraxUoY3Q8N2v7YTp-5" target="_PwQraxUoY3Q8N2v7YTp-4">
          <mxGeometry x="0.0622" relative="1" as="geometry">
            <mxPoint x="270" y="420" as="targetPoint" />
            <Array as="points">
              <mxPoint x="424" y="260" />
            </Array>
            <mxPoint as="offset" />
            <mxPoint x="629" y="220" as="sourcePoint" />
          </mxGeometry>
        </mxCell>
        <mxCell id="_PwQraxUoY3Q8N2v7YTp-10" value="" style="html=1;exitX=0.5;exitY=0;labelBackgroundColor=none;startFill=0;endArrow=block;endFill=1;strokeColor=#000000;strokeWidth=1;fontFamily=Verdana;fontSize=12;curved=1;exitDx=0;exitDy=0;entryX=1;entryY=0.5;entryDx=0;entryDy=0;" edge="1" parent="1" source="_PwQraxUoY3Q8N2v7YTp-4" target="_PwQraxUoY3Q8N2v7YTp-5">
          <mxGeometry x="0.0622" relative="1" as="geometry">
            <mxPoint x="290" y="470" as="targetPoint" />
            <Array as="points">
              <mxPoint x="640" y="100" />
            </Array>
            <mxPoint as="offset" />
            <mxPoint x="649" y="270" as="sourcePoint" />
          </mxGeometry>
        </mxCell>
        <mxCell id="_PwQraxUoY3Q8N2v7YTp-11" value="" style="html=1;exitX=0.5;exitY=0;labelBackgroundColor=none;startFill=0;endArrow=block;endFill=1;strokeColor=#000000;strokeWidth=1;fontFamily=Verdana;fontSize=12;curved=1;exitDx=0;exitDy=0;entryX=0;entryY=0.5;entryDx=0;entryDy=0;" edge="1" parent="1" source="_PwQraxUoY3Q8N2v7YTp-2" target="_PwQraxUoY3Q8N2v7YTp-5">
          <mxGeometry x="0.0622" relative="1" as="geometry">
            <mxPoint x="55" y="570" as="targetPoint" />
            <Array as="points">
              <mxPoint x="210" y="90" />
            </Array>
            <mxPoint as="offset" />
            <mxPoint x="414" y="370" as="sourcePoint" />
          </mxGeometry>
        </mxCell>
        <mxCell id="_PwQraxUoY3Q8N2v7YTp-12" value="is_object" style="text;html=1;align=center;verticalAlign=middle;whiteSpace=wrap;rounded=0;" vertex="1" parent="1">
          <mxGeometry x="150" y="130" width="60" height="30" as="geometry" />
        </mxCell>
        <mxCell id="_PwQraxUoY3Q8N2v7YTp-13" value="is_object" style="text;html=1;align=center;verticalAlign=middle;whiteSpace=wrap;rounded=0;" vertex="1" parent="1">
          <mxGeometry x="630" y="130" width="60" height="30" as="geometry" />
        </mxCell>
        <mxCell id="_PwQraxUoY3Q8N2v7YTp-15" value="!is_object&lt;br&gt;lost_right" style="text;html=1;align=center;verticalAlign=middle;whiteSpace=wrap;rounded=0;" vertex="1" parent="1">
          <mxGeometry x="414" y="240" width="60" height="30" as="geometry" />
        </mxCell>
        <mxCell id="_PwQraxUoY3Q8N2v7YTp-16" value="!is_object&lt;br&gt;!lost_right" style="text;html=1;align=center;verticalAlign=middle;whiteSpace=wrap;rounded=0;" vertex="1" parent="1">
          <mxGeometry x="310" y="220" width="60" height="30" as="geometry" />
        </mxCell>
      </root>
    </mxGraphModel>
  </diagram>
</mxfile>
